<svg width="20" height="20" viewBox="0 0 20 20" fill="none" xmlns="http://www.w3.org/2000/svg">
<path d="M10.9166 10.175L12.9791 12.425C13.1471 12.6083 13.2312 12.8377 13.2312 13.113C13.2312 13.3877 13.1471 13.625 12.9791 13.825C12.7958 14.025 12.5782 14.125 12.3264 14.125C12.074 14.125 11.8562 14.025 11.6728 13.825L9.72492 11.7C9.51103 11.4667 9.35061 11.2083 9.24367 10.925C9.13672 10.6417 9.08325 10.3333 9.08325 10V7C9.08325 6.71667 9.17125 6.479 9.34725 6.287C9.52264 6.09567 9.7402 6 9.99992 6C10.2596 6 10.4775 6.09567 10.6535 6.287C10.8289 6.479 10.9166 6.71667 10.9166 7V10.175ZM9.99992 2C10.2596 2 10.4775 2.09567 10.6535 2.287C10.8289 2.479 10.9166 2.71667 10.9166 3C10.9166 3.28333 10.8289 3.521 10.6535 3.713C10.4775 3.90433 10.2596 4 9.99992 4C9.7402 4 9.52264 3.90433 9.34725 3.713C9.17125 3.521 9.08325 3.28333 9.08325 3C9.08325 2.71667 9.17125 2.479 9.34725 2.287C9.52264 2.09567 9.7402 2 9.99992 2ZM17.3333 10C17.3333 10.2833 17.2453 10.5207 17.0693 10.712C16.8939 10.904 16.6763 11 16.4166 11C16.1569 11 15.9393 10.904 15.7639 10.712C15.5879 10.5207 15.4999 10.2833 15.4999 10C15.4999 9.71667 15.5879 9.479 15.7639 9.287C15.9393 9.09567 16.1569 9 16.4166 9C16.6763 9 16.8939 9.09567 17.0693 9.287C17.2453 9.479 17.3333 9.71667 17.3333 10ZM9.99992 16C10.2596 16 10.4775 16.096 10.6535 16.288C10.8289 16.4793 10.9166 16.7167 10.9166 17C10.9166 17.2833 10.8289 17.5207 10.6535 17.712C10.4775 17.904 10.2596 18 9.99992 18C9.7402 18 9.52264 17.904 9.34725 17.712C9.17125 17.5207 9.08325 17.2833 9.08325 17C9.08325 16.7167 9.17125 16.4793 9.34725 16.288C9.52264 16.096 9.7402 16 9.99992 16ZM4.49992 10C4.49992 10.2833 4.41222 10.5207 4.23684 10.712C4.06084 10.904 3.84297 11 3.58325 11C3.32353 11 3.10567 10.904 2.92967 10.712C2.75428 10.5207 2.66659 10.2833 2.66659 10C2.66659 9.71667 2.75428 9.479 2.92967 9.287C3.10567 9.09567 3.32353 9 3.58325 9C3.84297 9 4.06084 9.09567 4.23684 9.287C4.41222 9.479 4.49992 9.71667 4.49992 10ZM9.99992 20C8.73186 20 7.5402 19.7373 6.42492 19.212C5.30964 18.6873 4.3395 17.975 3.5145 17.075C2.6895 16.175 2.03653 15.1167 1.55559 13.9C1.07403 12.6833 0.833252 11.3833 0.833252 10C0.833252 8.61667 1.07403 7.31667 1.55559 6.1C2.03653 4.88333 2.6895 3.825 3.5145 2.925C4.3395 2.025 5.30964 1.31233 6.42492 0.787C7.5402 0.262333 8.73186 0 9.99992 0C11.268 0 12.4596 0.262333 13.5749 0.787C14.6902 1.31233 15.6603 2.025 16.4853 2.925C17.3103 3.825 17.9633 4.88333 18.4443 6.1C18.9258 7.31667 19.1666 8.61667 19.1666 10C19.1666 11.3833 18.9258 12.6833 18.4443 13.9C17.9633 15.1167 17.3103 16.175 16.4853 17.075C15.6603 17.975 14.6902 18.6873 13.5749 19.212C12.4596 19.7373 11.268 20 9.99992 20ZM9.99992 18C12.0471 18 13.7812 17.225 15.202 15.675C16.6228 14.125 17.3333 12.2333 17.3333 10C17.3333 7.76667 16.6228 5.875 15.202 4.325C13.7812 2.775 12.0471 2 9.99992 2C7.9527 2 6.21867 2.775 4.79784 4.325C3.377 5.875 2.66659 7.76667 2.66659 10C2.66659 12.2333 3.377 14.125 4.79784 15.675C6.21867 17.225 7.9527 18 9.99992 18Z" fill="black"/>
</svg>
